<?xml version="1.0" standalone="no"?><!DOCTYPE svg PUBLIC "-//W3C//DTD SVG 1.1//EN" "http://www.w3.org/Graphics/SVG/1.1/DTD/svg11.dtd"><svg class="icon" height="512" viewBox="0 0 1024 1024" version="1.1" xmlns="http://www.w3.org/2000/svg"><path d="M935.033 173.97H422.266c-13.921 0-25.2 11.285-25.2 25.2v75.206H267.093a25.198 25.198 0 0 0-17.654 7.22L71.314 456.438a25.234 25.234 0 0 0-7.547 17.99V724.75c0 13.913 11.279 25.201 25.2 25.201h49.77c6.83 56.308 54.913 100.08 113.042 100.08 58.122 0 106.203-43.77 113.033-100.08H581.027c6.827 56.308 54.91 100.08 113.04 100.08 58.12 0 106.2-43.77 113.03-100.08h127.937c13.921 0 25.201-11.288 25.201-25.2V199.168c0-13.914-11.28-25.2-25.202-25.2zM114.168 485l163.228-160.225h119.67V699.55h-37.457c-15.281-44.882-57.845-77.26-107.831-77.26-49.993 0-92.558 32.377-107.84 77.26h-29.771V485zM251.777 799.63c-35.003 0-63.476-28.474-63.476-63.467 0-1.118 0.03-2.23 0.088-3.334a25.183 25.183 0 0 0 1.331-8.079 24.6 24.6 0 0 0-0.06-1.653c6.04-28.749 31.593-50.404 62.117-50.404 34.995 0 63.467 28.473 63.467 63.468 0.002 34.996-28.472 63.469-63.467 63.469z m442.288 0c-35.004 0-63.477-28.474-63.477-63.467 0-34.995 28.473-63.468 63.477-63.468 34.994 0 63.467 28.473 63.467 63.468 0 34.994-28.473 63.467-63.467 63.467zM909.832 699.55H801.894c-15.28-44.883-57.844-77.26-107.829-77.26-49.992 0-92.559 32.377-107.841 77.26H447.466V224.369h462.366v475.182zM229.34 508.317h126.068c9.276 0 16.8-7.523 16.8-16.8V365.447c0-9.277-7.524-16.8-16.8-16.8h-52.723a16.808 16.808 0 0 0-14.518 8.35l-73.344 126.069a16.774 16.774 0 0 0-0.04 16.824 16.792 16.792 0 0 0 14.558 8.426z m83.01-126.07h26.26v92.468h-80.056l53.796-92.467z" /></svg>